<svg xmlns="http://www.w3.org/2000/svg"  viewBox="0 0 64 64" width="50px" height="50px"><path fill="#fd3c4f" d="M50,23h-1l0-9.037c0-0.881-0.221-1.755-0.669-2.513c-2.733-4.629-7.974-6.829-11.783-7.852	c-2.978-0.8-6.118-0.8-9.096,0c-3.809,1.023-9.05,3.223-11.783,7.852C15.221,12.209,15,13.083,15,13.963L15,23h-1	c-1.105,0-2,0.895-2,2v9c0,1.105,0.895,2,2,2h1.052c0.108,1.808,0.406,3.6,0.904,5.344l2.517,8.808	c0.34,1.189,1.109,2.211,2.158,2.866l5.154,3.221c0.795,0.497,1.713,0.76,2.65,0.76H32h3.566c0.937,0,1.855-0.263,2.65-0.76	l5.154-3.221c1.049-0.656,1.818-1.677,2.158-2.866l2.517-8.808c0.498-1.744,0.796-3.536,0.904-5.344H50c1.105,0,2-0.895,2-2v-9	C52,23.895,51.105,23,50,23z"/><path fill="#fff" d="M32.397,3.011c-1.661-0.038-3.327,0.152-4.945,0.587 c-3.809,1.023-9.05,3.223-11.783,7.852C15.221,12.209,15,13.083,15,13.963v2.442c0.221,0.03,0.443,0.046,0.664,0.046 c1.711,0,3.377-0.879,4.311-2.459c1.958-3.316,6.338-4.91,8.775-5.564C31.18,7.775,32.687,5.438,32.397,3.011z" opacity=".3"/><path d="M48.91,36.445c-2.492-0.44-4.963,1.039-5.673,3.526l-2.517,8.808L35.566,52 c-1.747,1.092-2.584,3.085-2.29,5h2.29c0.937,0,1.855-0.263,2.65-0.76l5.154-3.221c1.049-0.656,1.818-1.677,2.158-2.866 l2.517-8.808C48.502,39.744,48.782,38.102,48.91,36.445z" opacity=".15"/><path fill="#ffa1ac" d="M44.886,13.736c-1.04-1.763-2.645-3.073-4.388-4.048c-1.278-0.715-2.869,0.133-2.981,1.593	l-0.304,3.949C37.093,16.793,35.79,18,34.222,18h-4.444c-1.568,0-2.871-1.207-2.991-2.77l-0.304-3.949	c-0.112-1.46-1.703-2.308-2.981-1.593c-1.743,0.974-3.348,2.285-4.388,4.046C19.041,13.859,19,14.814,19,15v10.995l0.042,9.295	c0.002,0.41,0.123,0.81,0.363,1.142c0.457,0.633,1.246,1.488,1.785,2.072c1.402,1.517,2.612,2.826,2.649,3.983	c0.04,1.268-0.833,4.636-1.232,6.099c-0.114,0.418,0.055,0.857,0.417,1.095l2.617,1.718c0.563,0.37,1.324,0.088,1.51-0.56	l0.112-0.391C27.511,49.591,28.295,49,29.187,49h5.625c0.892,0,1.676,0.591,1.922,1.449l0.112,0.39	c0.186,0.648,0.947,0.93,1.51,0.56l2.618-1.719c0.362-0.238,0.531-0.677,0.417-1.095c-0.398-1.463-1.272-4.83-1.231-6.099	c0.037-1.157,1.248-2.467,2.649-3.984c0.531-0.575,1.306-1.414,1.765-2.026c0.252-0.336,0.379-0.747,0.381-1.167L45,26V15	C45,14.814,44.96,13.86,44.886,13.736z"/><line x1="22.5" x2="27.5" y1="29.5" y2="31.5" fill="none" stroke="#a0effe" stroke-linecap="round" stroke-miterlimit="10" stroke-width="3"/><line x1="41.5" x2="36.5" y1="29.5" y2="31.5" fill="none" stroke="#a0effe" stroke-linecap="round" stroke-miterlimit="10" stroke-width="3"/><ellipse cx="32" cy="61" opacity=".3" rx="19" ry="3"/><path fill="none" stroke="#fff" stroke-linecap="round" stroke-miterlimit="10" stroke-width="3" d="M20.272,10.515	c0.778-0.712,1.644-1.321,2.545-1.842s1.838-0.953,2.757-1.311"/></svg>