<svg xmlns="http://www.w3.org/2000/svg"  viewBox="0 0 64 64" width="50px" height="50px" baseProfile="basic"><path fill="#68e5fd" d="M15.681,19.171l-0.843-7.295c-0.056-0.488-0.317-0.929-0.716-1.215L9.206,7.149	C8.658,6.758,7.908,7.214,8.003,7.88l1.621,11.347c0.079,0.553,0.42,1.035,0.915,1.294l7.937,4.153l-0.013-3.731L15.681,19.171z"/><ellipse cx="32" cy="61" opacity=".3" rx="18" ry="3"/><path fill="#68e5fd" d="M31.205,5.391C27.339,10.39,15,12.517,15,26h17.019H49c0-13.483-12.302-15.61-16.167-20.609	C32.414,4.849,31.624,4.849,31.205,5.391z"/><path fill="none" stroke="#fff" stroke-linecap="round" stroke-linejoin="round" stroke-miterlimit="10" stroke-width="3" d="M23.008,15.929c1.455-1.278,3.139-2.361,4.856-3.467"/><path fill="#fff" d="M15.032,24.89c0.318,0.062,0.637,0.1,0.953,0.1c2.045,0,3.965-1.265,4.701-3.299	c1.211-3.344,4.02-5.387,7.037-7.354c2.313-1.508,2.966-4.605,1.458-6.919c-0.014-0.021-0.032-0.037-0.047-0.058	C24.285,11.082,15.597,14.198,15.032,24.89z" opacity=".3"/><path fill="orange" d="M32.019,55.999c11.727-0.006,18.742-2.52,22.23-4.291c0.997-0.506,0.995-1.883,0.049-2.479	C48.641,45.67,49,31,49,31l-0.115-2.814h-33.77L15,31c0,0,0.359,14.67-5.297,18.229c-0.947,0.596-0.948,1.972,0.049,2.479	c3.488,1.771,10.502,4.285,22.23,4.291V56c0.006,0,0.012,0,0.018,0S32.013,56,32.019,55.999L32.019,55.999z"/><path d="M54.366,49.272c-3.251-1.977-4.54-7.594-5.047-12.084c-0.011-0.008-0.016-0.012-0.027-0.019	c-2.878,0.528-4.664,3.366-3.955,6.154c0.44,1.726,0.989,3.269,1.644,4.623c0.272,0.561-0.036,1.227-0.638,1.388	c-0.983,0.262-2.074,0.512-3.278,0.734c-2.638,0.487-4.389,2.965-4.028,5.597c7.601-0.741,12.493-2.575,15.216-3.959	C55.225,51.211,55.296,49.837,54.366,49.272z" opacity=".15"/><path fill="#ffce29" d="M19,30v12.681c0,2.132,0.813,4.184,2.272,5.739l4.618,4.917c1.595,1.698,3.825,2.656,6.154,2.644h0	c2.3-0.012,4.494-0.968,6.068-2.645l4.616-4.917C44.188,46.865,45,44.813,45,42.681V30l-12.981-1.814L19,30z"/><rect width="34" height="4" x="15" y="26" fill="#68e5fd"/><path fill="#68e5fd" d="M28.613,31.971l-3.85-2.576h14.512l-3.895,2.587C33.328,33.345,30.659,33.341,28.613,31.971z"/><path fill="#9c34c2" d="M23.721,33.015c-0.419-0.105-0.814,0.369-0.702,0.888C23.405,35.688,24.705,37,26.25,37	c1.06,0,2.004-0.619,2.616-1.585c0.282-0.444,0.095-1.107-0.348-1.216C27.282,33.896,24.96,33.326,23.721,33.015z"/><path fill="#9c34c2" d="M35.481,34.199c-0.443,0.109-0.63,0.772-0.348,1.216C35.746,36.381,36.69,37,37.75,37	c1.545,0,2.845-1.312,3.231-3.097c0.112-0.519-0.283-0.994-0.702-0.888C39.04,33.326,36.718,33.896,35.481,34.199z"/><path fill="orange" d="M26.164,48.083L26.164,48.083c-0.405-0.9,0.03-1.986,0.916-2.261c1.259-0.39,3.082-0.827,4.93-0.827	c1.848,0,3.669,0.437,4.928,0.827c0.887,0.275,1.321,1.362,0.916,2.262h0c-0.319,0.709-1.059,1.064-1.756,0.841	c-1.024-0.327-2.574-0.722-4.088-0.722c-1.515,0-3.066,0.396-4.091,0.723C27.222,49.148,26.483,48.793,26.164,48.083z"/><path fill="#68e5fd" d="M48.306,19.171l0.843-7.295c0.056-0.488,0.317-0.929,0.716-1.215l4.916-3.512	c0.548-0.391,1.298,0.065,1.203,0.731l-1.621,11.347c-0.079,0.553-0.42,1.035-0.915,1.294l-7.937,4.153l0.013-3.731L48.306,19.171z"/></svg>