<svg xmlns="http://www.w3.org/2000/svg"  viewBox="0 0 64 64" width="50px" height="50px" baseProfile="basic"><ellipse cx="32" cy="61" opacity=".3" rx="19" ry="3"/><path fill="#9c34c2" d="M32,5c-11.045,0-20,5.898-20,19.048S19.5,55,32,55s20-17.803,20-30.952S43.045,5,32,5z"/><path fill="none" stroke="#fff" stroke-linecap="round" stroke-linejoin="round" stroke-miterlimit="10" stroke-width="3" d="M22.424,10.702c2-1.1,4.16-1.67,6.078-1.951"/><path d="M45.941,32.575C43.87,41.249,38.756,50,32,50c-2.426,0-4.446,1.729-4.901,4.022 C28.633,54.647,30.267,55,32,55c11.033,0,18.166-13.867,19.69-26.164C49.098,28.366,46.56,29.981,45.941,32.575z" opacity=".15"/><path fill="#fff" d="M36.955,5.449C35.367,5.16,33.714,5,32,5c-11.045,0-20,5.897-20,19.047 c0,1.6,0.113,3.269,0.331,4.967C14.935,28.841,17,26.695,17,24.047C17,11.825,26.398,10,32,10C34.607,10,36.724,7.996,36.955,5.449 z" opacity=".3"/><path fill="#ffa1ac" d="M42.763,14.128c2.202,5.811-1.949,12.352-5.125,13.573c-1.487,0.572-2.276,2.177-1.574,3.619	c0.451,0.928,1.019,1.797,1.568,2.484c2.236,2.787,6.67,2.355,8.329-0.817c3.219-6.157,1.647-15.855-1.938-19.667	C43.457,12.718,42.469,13.352,42.763,14.128z"/><path fill="#ffa1ac" d="M21.541,14.128c-2.202,5.811,1.949,12.352,5.125,13.573c1.487,0.572,2.276,2.177,1.574,3.619	c-0.451,0.928-1.019,1.797-1.568,2.484c-2.236,2.787-6.67,2.355-8.329-0.817c-3.221-6.157-1.649-15.855,1.936-19.667	C20.848,12.718,21.835,13.352,21.541,14.128z"/><path fill="#fd3c4f" d="M36.595,47.78l-1.201-0.864c-0.439-0.316-1.031-0.315-1.469,0.001l-1.198,0.863	c-0.439,0.316-1.031,0.316-1.47,0l-1.195-0.861c-0.439-0.316-1.031-0.316-1.47,0l-1.195,0.861c-0.137,0.099-0.291,0.156-0.449,0.193	c1.718,1.262,3.519,2.024,5.052,2.027c1.533-0.004,3.333-0.765,5.051-2.026C36.891,47.936,36.734,47.88,36.595,47.78z"/><path fill="#fff" d="M42.029,39.064C39.848,40.011,36.29,40.998,32,41c-4.29-0.002-7.848-0.989-10.029-1.936	c-0.654-0.284-1.081,0.427-0.834,1.14c0.423,1.222,1.022,2.393,1.74,3.474c0.309,0.466,1.003,0.428,1.281-0.057	c0.199-0.346,0.487-0.628,0.898-0.628c1.098,0,1.667,1.006,2.371,1.006c0.847,0,1.08-1,1.889-1c1.115,0,1.643,1.995,2.683,2.001	c1.04-0.005,1.568-2.001,2.683-2.001c0.809,0,1.042,1,1.889,1c0.704,0,1.274-1.006,2.371-1.006c0.411,0,0.699,0.282,0.898,0.628	c0.279,0.485,0.972,0.523,1.281,0.057c0.718-1.081,1.317-2.252,1.74-3.474C43.109,39.491,42.682,38.78,42.029,39.064z"/></svg>